<svg aria-hidden="true" style="position:absolute;width:0;height:0" xmlns="http://www.w3.org/2000/svg" overflow="hidden"><defs><symbol id="cart" viewBox="0 0 32 32"><path d="M31.513 9.179h.002l-4.4 9.778a1.47 1.47 0 01-1.235.862h-.005l-12.672.844.732 2.091h13.797a2.933 2.933 0 11-2.933 2.933H11.11v.002a2.933 2.933 0 11-2.933-2.933h2.649L5.183 6.623h-3.36a1.467 1.467 0 010-2.934h4.398c.64 0 1.179.412 1.38.983h.005l.853 2.439h21.717a1.467 1.467 0 011.331 2.077l.004-.009zm-22.027.865l2.713 7.746 12.603-.841 3.108-6.905z"/></symbol><symbol id="facebook" viewBox="0 0 15 32"><path d="M14.88.245v5.071s-3.739-.372-4.676 1.061c-.512.783-.208 3.077-.254 4.724h4.96c-.42 1.925-.72 3.23-1.029 4.896H9.923v15.759H3.052V16.059H.13v-4.956h2.891c.148-3.626.203-7.217 2.005-9.046C7.049 0 8.98.247 14.878.247z"/></symbol><symbol id="glass" viewBox="0 0 32 32"><path d="M31.644 28.711a2.933 2.933 0 01-5.008 2.073l-8.597-8.596a11.663 11.663 0 01-5.95 1.634c-6.48 0-11.733-5.253-11.733-11.733S5.609.356 12.089.356s11.733 5.253 11.733 11.733c0 2.196-.608 4.249-1.663 6.003l.029-.053 8.597 8.597c.53.53.859 1.262.859 2.075zM12.089 3.289a8.8 8.8 0 000 17.6 8.8 8.8 0 000-17.6z"/></symbol><symbol id="instagram" viewBox="0 0 32 32"><path d="M27.938 31.754H4.307a3.938 3.938 0 01-3.938-3.938V4.185A3.938 3.938 0 014.307.247h23.631a3.938 3.938 0 013.938 3.938v23.631a3.938 3.938 0 01-3.938 3.938zM16.123 9.895a6.1 6.1 0 00-5.52 3.507l-.016.037h-.006l-.027.066c-.042.09-.095.22-.144.353l-.014.042a4.076 4.076 0 00-.178.568l-.009.042c-.017.066-.037.13-.052.197a5.358 5.358 0 00-.072.422l-.003.031c-.009.062-.021.122-.028.185a6.105 6.105 0 1012.135-.028l.003.028c-.006-.063-.018-.123-.027-.185a6.094 6.094 0 00-.082-.493l.007.04c-.015-.066-.034-.13-.052-.197a5.727 5.727 0 00-.129-.462l.012.044c-.021-.064-.047-.127-.07-.192a5.766 5.766 0 00-.173-.432l.015.038-.027-.069h-.006c-.99-2.108-3.096-3.542-5.536-3.543zm12.209-4.529c0-.87-.705-1.575-1.575-1.575h-3.151c-.87 0-1.575.705-1.575 1.575v3.151c0 .87.705 1.575 1.575 1.575h3.151c.87 0 1.575-.705 1.575-1.575zm0 8.074h-2.905c.22.768.346 1.649.346 2.56a9.649 9.649 0 01-9.649 9.649h-.002A9.649 9.649 0 016.473 16c0-.911.126-1.793.362-2.628l-.016.068H3.914v13.194c0 .87.705 1.575 1.575 1.575h21.268c.87 0 1.575-.705 1.575-1.575z"/></symbol><symbol id="pinterest" viewBox="0 0 25 32"><path d="M9.908 20.743c-.256 1.025-.516 2.1-.784 3.151-.265 1.036-.498 2.087-.884 3.04-.639 1.577-1.45 3.102-2.514 4.334-.708.821-.558.492-.77.449-.162-.034-.176-.193-.209-.425-.172-1.253-.054-2.702.01-4.111.074-1.604.411-2.938.725-4.271.596-2.54 1.164-5.03 1.766-7.586.039-.17.148-.45.111-.548-.273-.71-.45-1.348-.528-2.092a6.67 6.67 0 01.182-2.439l-.011.046c.34-1.302 1.122-2.455 2.33-2.878.768-.266 1.618-.145 2.135.162.532.319.897.821 1.067 1.534.182.757.048 1.662-.098 2.327-.329 1.5-.761 2.626-1.153 4.074-.194.718-.415 1.455-.234 2.23a2.605 2.605 0 001.044 1.569c.524.382 1.145.591 2 .56 1.511-.053 2.561-1.019 3.263-1.93 1.124-1.458 1.803-3.426 2.062-5.767.084-.756.144-1.623.086-2.479-.108-1.58-.603-2.852-1.387-3.836-.746-.939-1.804-1.686-3.092-2.105-1.276-.418-3.042-.556-4.612-.288-2.853.489-4.864 2.11-6.049 4.348a8.6 8.6 0 00-1.031 4.11v.091-.005c0 1.292.32 2.295.834 3.077.164.247.404.452.564.735.228.401-.034.998-.148 1.433-.135.523-.148 1.246-.759 1.258-.254.005-.571-.18-.785-.299C1.433 17.325.458 15.71.058 13.616c-.116-.599-.182-1.288-.182-1.993s.066-1.393.193-2.061l-.011.069a11.36 11.36 0 011.153-3.177 11.461 11.461 0 014.204-4.356l.053-.029C6.842 1.257 8.391.687 10.277.412c.568-.08 1.25-.138 1.942-.162l.034-.001a11.833 11.833 0 015.4 1.027l-.075-.03c1.44.644 2.66 1.536 3.66 2.633l.008.009c1.031 1.126 1.782 2.437 2.257 4.073.249.852.49 1.762.49 2.815 0 1.056-.223 1.985-.379 2.914-.583 3.481-2.239 6.327-4.724 7.948a8.055 8.055 0 01-2.101.981l-.058.015c-.821.239-1.758.418-2.761.348a5.649 5.649 0 01-2.469-.725l.028.015c-.665-.375-1.223-.836-1.62-1.531z"/></symbol><symbol id="twitter" viewBox="0 0 32 32"><path d="M21.554 3.201c2.503-.044 3.836.868 5.108 2.027 1.082-.092 2.486-.695 3.313-1.116l.804-.439c-.473 1.276-1.113 2.277-2.097 3.035-.219.167-.436.395-.71.502v.016c1.403-.014 2.56-.647 3.659-.991v.016c-.577.917-1.359 1.849-2.192 2.516l-1.009.801c.018 1.486-.022 2.903-.3 4.151-1.614 7.255-5.892 12.181-12.662 14.292-2.432.757-6.361 1.068-9.147.377-1.381-.342-2.629-.73-3.801-1.241a14.789 14.789 0 01-1.895-.983l.066.038-.567-.343c.628.018 1.364.192 2.065.078.636-.102 1.259-.075 1.846-.203 1.462-.321 2.761-.746 3.878-1.401.543-.316 1.366-.689 1.751-1.147-.726.012-1.385-.156-1.924-.346-2.092-.738-3.308-2.096-4.101-4.135.634.07 2.459.234 2.886-.126-.798-.044-1.564-.506-2.113-.849-1.682-1.052-3.054-2.817-3.044-5.534l.662.314c.423.178.853.273 1.356.378.213.044.64.169.884.078h-.032c-.325-.378-.855-.63-1.182-1.038C1.975 10.586.964 8.524 1.604 6.065c.18-.641.416-1.2.714-1.719l-.019.037.032.015c.126.263.406.457.583.677.551.683 1.231 1.297 1.924 1.839 2.361 1.846 4.486 2.981 7.902 3.82.865.214 1.866.377 2.901.378-.29-.846-.197-2.215.031-3.034.576-2.06 1.825-3.545 3.659-4.338a7.417 7.417 0 011.384-.433l.051-.009.788-.094z"/></symbol></defs></svg>